<svg xmlns="http://www.w3.org/2000/svg" viewBox="0 0 24 24" width="24" height="24">
  <defs>
    <linearGradient id="grad4" x1="0%" y1="0%" x2="100%" y2="100%">
      <stop offset="0%" style="stop-color:#9B59B6;stop-opacity:1" />
      <stop offset="100%" style="stop-color:#8E44AD;stop-opacity:1" />
    </linearGradient>
  </defs>
  <path fill="url(#grad4)" d="M12 0C7.59 0 4 3.59 4 8c0 5.25 7 13 8 13s8-7.75 8-13c0-4.41-3.59-8-8-8zm0 11.5c-1.93 0-3.5-1.57-3.5-3.5S10.07 4.5 12 4.5s3.5 1.57 3.5 3.5-1.57 3.5-3.5 3.5z"/>
  <path fill="#ffffff" d="M12 4.5c-1.93 0-3.5 1.57-3.5 3.5s1.57 3.5 3.5 3.5 3.5-1.57 3.5-3.5-1.57-3.5-3.5-3.5zm0 5c-0.83 0-1.5-0.67-1.5-1.5s0.67-1.5 1.5-1.5 1.5 0.67 1.5 1.5-0.67 1.5-1.5 1.5z"/>
</svg>